Jump_normalized_Motion_pl17
version=1
nRows=14
nColumns=43
inDegrees=yes
endheader
time		pelvis_tilt		pelvis_list		pelvis_rotation		pelvis_tx		pelvis_ty		pelvis_tz		hip_flexion_r		hip_adduction_r		hip_rotation_r		knee_angle_r		ankle_angle_r		subtalar_angle_r		mtp_angle_r		hip_flexion_l		hip_adduction_l		hip_rotation_l		knee_angle_l		ankle_angle_l		subtalar_angle_l		mtp_angle_l		lumbar_extension		lumbar_bending		lumbar_rotation		neck_flexion		neck_lateral_bending		neck_rotation		arm_flex_r		arm_add_r		arm_rot_r		elbow_flex_r		pro_sup_r		wrist_flex_r		wrist_dev_r		hand_finger_flex_r		arm_flex_l		arm_add_l		arm_rot_l		elbow_flex_l		pro_sup_l		wrist_flex_l		wrist_dev_l		hand_finger_flex_l		
0.570833		2.421513		-25.864536		87.696218		0.050987		1.855932		1.695777		65.386763		5.478187		2.221435		-116.874894		24.979236		4.134426		24.839282		69.423976		-11.988304		-1.703648		-122.024053		9.050892		3.487673		25.980815		-34.285829		0.206620		2.974355		31.504941		-2.649769		4.438635		111.048001		-14.409167		18.060073		73.415275		99.981826		-5.888756		5.439736		27.878541		119.856267		-24.651716		33.946370		76.622036		82.318347		-8.274360		0.795654		29.409907		
0.574596		2.333171		-25.824142		87.624901		0.050762		1.859109		1.688911		64.472291		5.389891		2.406885		-116.216225		24.588928		4.230850		24.729266		68.702161		-12.007462		-1.938105		-121.423053		8.084773		3.171019		25.912865		-33.979002		0.148461		2.904824		30.967346		-2.634997		4.501782		111.567057		-14.253662		18.182495		73.141890		99.893282		-5.693120		5.399024		27.762469		120.447305		-24.540452		34.350296		76.250998		81.981543		-8.467671		0.771846		29.524265		
0.578359		2.304693		-25.893379		87.583410		0.050585		1.862147		1.681965		63.662654		5.336246		2.540473		-115.531737		24.236314		4.269777		24.626469		68.101147		-12.053844		-2.095828		-120.796138		7.370855		3.012572		25.862134		-33.557905		0.150153		2.874862		30.580859		-2.625802		4.523590		111.990221		-14.116522		18.283387		72.995815		99.890178		-5.584520		5.386463		27.724856		120.850233		-24.407460		34.510758		75.993940		81.849662		-8.561939		0.771935		29.565561		
0.582121		2.234854		-25.770785		87.499617		0.050390		1.865499		1.674795		62.661966		5.265141		2.725885		-114.855971		23.773784		4.291469		24.473229		67.297958		-12.096637		-2.315890		-120.151765		6.271895		2.704653		25.780424		-33.351761		0.094233		2.844673		30.113111		-2.612910		4.550385		112.462542		-13.995164		18.411617		72.788190		99.887349		-5.422358		5.349622		27.674309		121.322131		-24.280185		34.767250		75.666829		81.640628		-8.697483		0.746328		29.632748		
0.585884		2.000030		-25.347698		87.312374		0.050033		1.869208		1.667365		61.425441		5.107654		3.101233		-114.270608		22.905047		4.297430		24.136335		66.135860		-12.063913		-2.783385		-119.445965		4.594255		1.846685		25.591359		-33.438364		-0.116954		2.757582		29.276667		-2.617032		4.595278		113.020211		-13.897678		18.644564		72.436896		100.089465		-5.167486		5.282362		27.568749		121.896560		-24.174642		35.248855		75.195590		81.293102		-8.970974		0.656048		29.734994		
0.589646		1.786786		-25.246465		87.166514		0.049614		1.872336		1.660248		60.556424		4.937789		3.433050		-113.683016		22.208985		4.373903		23.827239		65.401317		-12.008694		-3.201391		-118.801592		3.383462		1.176870		25.388546		-33.180460		-0.273049		2.667045		28.628137		-2.654953		4.640959		113.449078		-13.770826		18.778430		72.200555		100.351717		-4.992237		5.231726		27.446155		122.353550		-24.081064		35.610471		74.808694		81.045690		-9.238146		0.601957		29.825587		
0.593409		1.620312		-25.218899		87.074670		0.049186		1.875219		1.653227		59.806844		4.768844		3.695274		-113.115012		21.446349		4.463151		23.578764		64.843494		-11.961381		-3.540987		-118.196215		2.156607		0.609123		25.203329		-32.831929		-0.371736		2.587515		27.933637		-2.745874		4.687644		113.845439		-13.647433		18.918211		71.960080		100.627934		-4.876314		5.219447		27.355463		122.736491		-23.930304		35.869590		74.387738		80.959868		-9.433581		0.608533		29.868754		
0.597172		1.422160		-25.161444		86.983623		0.048744		1.878150		1.646139		59.040657		4.573679		3.960938		-112.547216		20.684890		4.491339		23.358544		64.300773		-11.904312		-3.943186		-117.548689		0.479155		-0.278689		24.970971		-32.533213		-0.499477		2.481118		27.338798		-2.827760		4.696230		114.219456		-13.518582		19.029604		71.748852		100.988016		-4.814164		5.172325		27.263115		123.090131		-23.755461		36.070753		73.976457		80.961951		-9.645235		0.566174		29.882101		
0.600934		1.317131		-25.153415		86.968690		0.048373		1.880857		1.639035		58.352516		4.407398		4.132727		-111.982174		19.795880		4.652065		23.185344		63.878533		-11.892098		-4.201635		-116.937787		-0.850111		-0.910734		24.778050		-32.152734		-0.537530		2.372504		26.554547		-2.859367		4.719323		114.545731		-13.396812		19.185935		71.525596		101.289912		-4.751428		5.205485		27.209533		123.376804		-23.609971		36.261660		73.585661		81.047277		-9.775566		0.589813		29.890827		
0.604697		1.229674		-25.112309		86.977175		0.048040		1.883558		1.631869		57.643156		4.249150		4.280673		-111.414382		18.869774		4.798066		23.018027		63.464264		-11.889933		-4.446414		-116.304700		-2.352309		-1.665164		24.550987		-31.815101		-0.565851		2.259095		25.814445		-2.893582		4.738751		114.843273		-13.252120		19.298414		71.304346		101.628544		-4.716134		5.239080		27.151022		123.652440		-23.430707		36.433881		73.165820		81.178173		-9.921682		0.608768		29.895129		
0.608460		1.192147		-24.982847		87.029189		0.047771		1.886446		1.624543		56.825960		4.136896		4.373655		-110.798738		17.917101		4.807739		22.849669		62.993634		-11.879025		-4.631892		-115.614180		-4.371420		-2.785865		24.239281		-31.601942		-0.561261		2.138921		25.187980		-2.871001		4.728712		115.100660		-13.073737		19.320345		71.123797		102.109943		-4.720099		5.268253		27.088625		123.891139		-23.249716		36.542736		72.792408		81.418386		-10.110259		0.600251		29.902312		
0.612222		1.231156		-24.825862		87.132896		0.047517		1.889334		1.617178		55.992039		4.069268		4.392385		-110.175801		16.874878		4.743754		22.659887		62.534967		-11.892207		-4.726454		-114.917225		-6.315102		-3.830701		23.973511		-31.427594		-0.482525		2.038199		24.560485		-2.851515		4.735806		115.333285		-12.852446		19.299861		70.930109		102.635739		-4.705821		5.324282		27.057844		124.108469		-23.074922		36.633943		72.432654		81.719301		-10.292474		0.651279		29.912538		
0.615985		1.288567		-24.686856		87.261740		0.047202		1.892067		1.609860		55.224050		4.018983		4.415243		-109.572814		15.680318		4.736432		22.425345		62.124392		-11.891141		-4.796549		-114.250799		-7.904150		-4.686381		23.745376		-31.228410		-0.371069		1.925955		23.867438		-2.859526		4.762448		115.555887		-12.600334		19.281215		70.682705		103.180087		-4.598997		5.383315		27.068849		124.313187		-22.921626		36.742101		72.058620		82.052094		-10.460021		0.756236		29.955371		
0.619747		1.375544		-24.498675		87.394139		0.046942		1.894912		1.602527		54.419492		4.018166		4.393379		-108.958762		14.472795		4.465753		22.117952		61.690981		-11.899411		-4.808092		-113.535191		-9.761892		-5.477969		23.643646		-31.126356		-0.249221		1.836904		23.348727		-2.872573		4.784576		115.779854		-12.320112		19.188253		70.454709		103.764747		-4.458116		5.390575		27.115557		124.527327		-22.766385		36.827108		71.727926		82.466248		-10.703647		0.872674		29.981251		
